PathFileType        4      (X/Y/Z)      C:\Users\aurel\Documents\opensim-MSc\data\transformed_83_35.trc
DataRate	CameraRate	NumFrames	NumMarkers	Units	OrigDataRate	OrigDataStartFrame	OrigNumFrames
120.0	120.0	4	41	mm	120.0	263	1048
Frame#	Time	LFWT			RFWT			LBWT			RBWT			LTHI			LKNE			LSHN			LANK			LHEE			LMT5			LTOE			RTHI			RKNE			RSHN			RANK			RHEE			RMT5			RTOE			CLAV			STRN			C7			T10			RBAC			LFHD			RFHD			LBHD			RBHD			LSHO			LUPA			LELB			LFRM			LWRA			LWRB			LFIN			RSHO			RUPA			RELB			RFRM			RWRA			RWRB			RFIN
		X1	Y1	Z1	X2	Y2	Z2	X3	Y3	Z3	X4	Y4	Z4	X5	Y5	Z5	X6	Y6	Z6	X7	Y7	Z7	X8	Y8	Z8	X9	Y9	Z9	X10	Y10	Z10	X11	Y11	Z11	X12	Y12	Z12	X13	Y13	Z13	X14	Y14	Z14	X15	Y15	Z15	X16	Y16	Z16	X17	Y17	Z17	X18	Y18	Z18	X19	Y19	Z19	X20	Y20	Z20	X21	Y21	Z21	X22	Y22	Z22	X23	Y23	Z23	X24	Y24	Z24	X25	Y25	Z25	X26	Y26	Z26	X27	Y27	Z27	X28	Y28	Z28	X29	Y29	Z29	X30	Y30	Z30	X31	Y31	Z31	X32	Y32	Z32	X33	Y33	Z33	X34	Y34	Z34	X35	Y35	Z35	X36	Y36	Z36	X37	Y37	Z37	X38	Y38	Z38	X39	Y39	Z39	X40	Y40	Z40	X41	Y41	Z41
263	2.183	-1486.78857	881.6413600000002	370.64403999999996	-1511.4884	849.8543100000003	633.60577	-1654.8065199999999	955.8040200000003	406.40444999999994	-1660.3399699999998	951.5080600000002	546.7874099999999	-1499.87451	593.8161000000002	324.86818999999997	-1477.3175	443.6596100000002	359.33044	-1478.11841	208.0305300000002	349.08728	-1493.00403	75.4284600000002	377.65677	-1548.55066	57.628140000000215	421.37582	-1391.88269	37.94717000000019	357.60864	-1354.76111	56.71586000000019	443.80145	-1608.97815	643.9000900000002	645.04211	-1635.41907	422.0198400000002	606.30841	-1708.60229	329.2188700000002	629.04181	-1840.84497	88.47443000000025	570.68146	-1911.79016	64.25339000000027	519.85077	-1749.4502	33.53040000000025	600.18365	-1705.5603	49.49749000000024	527.4632	-1449.7293699999998	1287.1920200000002	459.6958599999999	-1458.2613499999998	1109.1827400000002	471.28112999999996	-1563.6082799999997	1385.6147500000002	464.19307999999995	-1664.8474099999999	1184.8068800000003	488.02617999999995	-1640.0058599999998	1276.0457800000001	558.8911099999999	-1341.1202399999997	1499.1132800000003	365.48928999999987	-1341.2825899999998	1504.0952100000002	526.6843899999999	-1493.0219699999998	1501.0958300000002	396.65947999999986	-1494.7853999999998	1508.0069600000002	506.9085699999999	-1537.9643599999997	1364.8516800000002	321.4047499999999	-1628.7985799999997	1160.1562500000002	254.53478999999993	-1669.1027799999997	1069.0219700000002	254.22548999999995	-1702.26318	904.9667400000002	243.87891999999994	-1595.93152	788.4753400000002	235.50504999999995	-1737.13269	805.4302400000003	203.57432999999995	-1658.5946	731.4448900000002	205.08085999999994	-1510.4450699999998	1366.7087400000003	615.6852999999999	-1544.8200699999998	1256.9497100000003	694.2729499999999	-1612.8305699999999	1066.4925500000002	712.0013399999999	-1618.3096899999998	990.0111700000002	704.3185999999998	-1432.32703	823.9943800000002	707.05829	-1562.11438	791.7192400000002	765.35425	-1527.19678	758.0427200000003	751.66071
264	2.192	-1481.11377	881.6245100000002	369.4144299999999	-1506.71948	850.7211300000002	632.61194	-1649.6597899999997	956.1480700000002	405.06954999999994	-1655.5571299999997	952.1325700000002	545.5222799999999	-1496.47961	593.3363000000003	323.92168999999996	-1475.17456	443.70636000000025	358.58453	-1477.31201	207.6119800000002	348.87088	-1492.49524	75.6300600000002	377.61368	-1548.56018	57.624040000000214	421.58945	-1391.8241	37.98262000000019	357.46518	-1354.75317	56.74001000000019	444.01544	-1602.95129	644.6324500000002	644.36908	-1627.49255	422.21350000000024	605.85626	-1702.16992	330.6531700000002	628.8866	-1839.00317	93.62618000000026	571.3371	-1910.45166	70.04829000000026	520.22607	-1748.62488	34.46774000000025	599.94128	-1704.78088	49.504600000000245	527.30383	-1445.2846699999998	1287.8075000000001	458.52431999999993	-1453.2853999999998	1110.0404100000003	469.9007899999999	-1559.1507599999998	1386.2041000000002	462.7730399999999	-1660.6136499999998	1185.5325900000003	486.02834999999993	-1635.2246099999998	1276.4531300000003	557.4007599999999	-1336.6086399999997	1500.1362300000003	364.3148199999999	-1337.0085399999998	1505.1698000000001	525.4500099999999	-1488.5427199999997	1501.9024700000002	395.24901999999986	-1490.4567899999997	1508.7749000000001	505.57335999999987	-1533.2464599999998	1365.6700400000002	319.94622999999996	-1623.8554699999997	1160.6345200000003	253.3444399999999	-1664.0601799999997	1069.3389900000002	253.05315999999993	-1696.04797	905.0885000000002	242.96064999999993	-1588.65271	788.7830800000003	235.33170999999993	-1730.04016	805.0059800000002	202.79722999999996	-1651.13831	731.7169800000003	204.43886999999995	-1506.1829799999998	1367.3070100000002	614.2025099999998	-1539.9518999999998	1257.6814000000002	692.9702099999998	-1608.7056899999998	1067.3544900000002	711.2797899999999	-1614.1265899999999	991.2273600000002	703.8452099999998	-1428.20959	824.6839600000002	706.68848	-1557.60498	792.8334400000002	765.05493	-1523.02527	759.5710400000003	751.28326
265	2.2	-1476.55872	881.5089700000002	368.6651299999999	-1502.06116	851.6810900000003	631.70795	-1644.4830299999999	956.4502600000002	403.76439999999997	-1650.4754599999999	952.4525800000002	544.2150299999998	-1493.24561	593.0094600000002	322.7398999999999	-1472.94824	443.54138000000023	357.76715	-1476.85095	207.3853600000002	348.68829	-1492.30298	75.5061500000002	377.603	-1548.70435	57.747320000000215	421.51999	-1391.77588	37.99087000000019	357.26843	-1354.77502	56.71302000000019	444.14377	-1596.07874	645.1237200000003	643.5802	-1619.47546	422.4957000000002	605.54987	-1695.40845	332.46350000000024	628.89655	-1835.40417	96.62772000000025	571.24866	-1909.09131	76.01173000000027	520.43799	-1747.90271	35.49662000000025	599.70886	-1703.72217	49.60230000000024	527.36359	-1440.7493899999997	1288.6322000000002	457.36593999999997	-1448.4290799999999	1110.6065700000001	468.66265999999996	-1554.5997299999997	1386.7706300000002	461.36504999999994	-1655.2923599999997	1185.6849400000003	482.54839999999996	-1630.5329599999998	1276.8448500000002	555.8793299999999	-1331.8299599999998	1501.3654800000002	363.35003999999986	-1332.6216999999997	1506.4438500000003	524.4226699999999	-1483.8142099999998	1502.5982700000002	393.93932999999987	-1485.9886499999998	1509.4137000000003	504.27071999999987	-1528.6213399999997	1366.2827100000002	318.72912999999994	-1618.8904999999997	1161.1331800000003	252.08489999999992	-1658.7852799999998	1069.6622300000001	251.83425999999994	-1689.67773	905.2277200000002	241.88111999999995	-1581.05249	789.8329500000002	234.71290999999994	-1722.71472	804.5354000000002	201.65470999999994	-1643.48474	732.1606400000002	203.67083999999994	-1501.5114699999997	1367.8728000000003	612.6980599999999	-1535.1873799999998	1258.4810800000002	691.5263099999999	-1604.5595699999997	1068.5305200000003	710.5889299999999	-1610.1608899999999	992.4659400000003	703.3557099999999	-1424.18835	825.7354100000002	706.56049	-1553.56787	794.1033300000003	765.04944	-1519.15027	760.9599000000002	751.14514
266	2.208	-1471.95081	881.8961800000002	367.46990999999997	-1497.33557	852.7655600000003	630.57056	-1639.6375699999999	957.0883800000003	402.67977999999994	-1645.2925999999998	952.8746900000002	543.0007299999999	-1490.40234	592.9797400000002	321.69771999999995	-1470.50708	442.72235000000023	356.99368	-1476.28943	207.1516700000002	348.41644	-1492.3103	75.3728500000002	377.65317	-1548.65002	57.757100000000214	421.43347	-1391.73438	37.82761000000019	357.19238	-1354.64478	56.61728000000019	444.07159	-1588.94116	645.5434000000002	642.74121	-1610.6543	422.9006000000002	605.58453	-1688.18665	334.3146400000002	628.96619	-1832.16541	99.96368000000025	571.7514	-1906.69604	81.93848000000027	520.67737	-1747.36353	36.49728000000025	599.51904	-1702.49988	49.608800000000244	527.39001	-1435.7326699999999	1289.3570600000003	455.91195999999997	-1443.3350799999998	1111.1749300000001	467.28472999999997	-1549.8066399999998	1387.4658200000001	459.93944999999997	-1651.6588099999997	1186.4146700000001	482.3928199999999	-1625.8978299999999	1277.5268600000002	554.2091699999999	-1326.9191899999998	1501.9184600000003	362.7093799999999	-1328.1566199999997	1506.6602800000003	523.7275399999999	-1478.9891399999997	1503.4552000000003	392.7696799999999	-1481.4518999999998	1509.9825400000002	503.3308699999999	-1523.9326199999998	1366.8402100000003	317.34765999999996	-1613.8204299999998	1161.6239000000003	250.6126099999999	-1653.3829299999998	1069.9820600000003	250.60364999999993	-1683.17175	905.5108600000002	240.66341999999995	-1573.42896	791.1554000000002	233.96274999999994	-1715.26514	804.1891500000003	200.30411999999995	-1635.4325	732.4791300000003	202.85512999999995	-1496.8774399999998	1368.5361300000002	611.1685199999998	-1531.2194799999997	1259.4758300000003	690.1539299999998	-1600.3980699999997	1069.5943600000003	709.6748699999999	-1606.2340099999997	993.5235000000002	702.7360799999999	-1420.43701	827.0131200000002	706.68433	-1550.08398	795.3863500000002	765.09753	-1515.50305	761.8347800000003	751.57373
